

<?xml version="1.0" encoding="UTF-8" standalone="no"?>
<!-- Created with Inkscape (http://www.inkscape.org/) -->

<svg
   version="1.1"
   id="svg1"
   width="800"
   height="800"
   viewBox="0 0 800 800"
   sodipodi:docname="cute-wolf-head.svg"
   inkscape:version="1.3.2 (091e20e, 2023-11-25, custom)"
   xmlns:inkscape="http://www.inkscape.org/namespaces/inkscape"
   xmlns:sodipodi="http://sodipodi.sourceforge.net/DTD/sodipodi-0.dtd"
   xmlns="http://www.w3.org/2000/svg"
   xmlns:svg="http://www.w3.org/2000/svg"
   xmlns:rdf="http://www.w3.org/1999/02/22-rdf-syntax-ns#"
   xmlns:cc="http://creativecommons.org/ns#"
   xmlns:dc="http://purl.org/dc/elements/1.1/">
  <title
     id="title14">cute-wolf-head</title>
  <defs
     id="defs1">
    <clipPath
       clipPathUnits="userSpaceOnUse"
       id="clipPath2">
      <path
         d="M 0,600 H 600 V 0 H 0 Z"
         transform="translate(-282.01501,-519.26081)"
         id="path2" />
    </clipPath>
    <clipPath
       clipPathUnits="userSpaceOnUse"
       id="clipPath4">
      <path
         d="M 0,600 H 600 V 0 H 0 Z"
         transform="translate(-210.1093,-341.57201)"
         id="path4" />
    </clipPath>
    <clipPath
       clipPathUnits="userSpaceOnUse"
       id="clipPath6">
      <path
         d="M 0,600 H 600 V 0 H 0 Z"
         transform="translate(-338.52701,-552.37601)"
         id="path6" />
    </clipPath>
    <clipPath
       clipPathUnits="userSpaceOnUse"
       id="clipPath8">
      <path
         d="M 0,600 H 600 V 0 H 0 Z"
         transform="translate(-375.84441,-195.69891)"
         id="path8" />
    </clipPath>
    <clipPath
       clipPathUnits="userSpaceOnUse"
       id="clipPath10">
      <path
         d="M 0,600 H 600 V 0 H 0 Z"
         transform="translate(-375.84441,-195.69891)"
         id="path10" />
    </clipPath>
    <clipPath
       clipPathUnits="userSpaceOnUse"
       id="clipPath12">
      <path
         d="M 0,600 H 600 V 0 H 0 Z"
         transform="translate(-452.74641,-487.71871)"
         id="path12" />
    </clipPath>
    <clipPath
       clipPathUnits="userSpaceOnUse"
       id="clipPath14">
      <path
         d="M 0,600 H 600 V 0 H 0 Z"
         transform="translate(-399.58111,-258.06211)"
         id="path14" />
    </clipPath>
  </defs>
  <sodipodi:namedview
     id="namedview1"
     pagecolor="#ffffff"
     bordercolor="#000000"
     borderopacity="0.25"
     inkscape:showpageshadow="2"
     inkscape:pageopacity="0.0"
     inkscape:pagecheckerboard="0"
     inkscape:deskcolor="#d1d1d1"
     inkscape:zoom="0.74"
     inkscape:cx="399.32432"
     inkscape:cy="400"
     inkscape:window-width="1440"
     inkscape:window-height="830"
     inkscape:window-x="-6"
     inkscape:window-y="-6"
     inkscape:window-maximized="1"
     inkscape:current-layer="layer-MC0">
    <inkscape:page
       x="0"
       y="0"
       inkscape:label="1"
       id="page1"
       width="800"
       height="800"
       margin="20.937067 101.69334 20.937334 80.158798"
       bleed="0" />
  </sodipodi:namedview>
  <g
     id="layer-MC0"
     inkscape:groupmode="layer"
     inkscape:label="libreclipart.org">
    <path
       id="path1"
       d="m 0,0 c 14.754,18.959 32.518,33.415 52.771,41.996 19.8,8.39 41.894,11.149 65.787,7.001 l 10.165,-1.765 -7.86,-6.681 c -4.261,-3.622 -7.876,-6.953 -11.015,-10.592 -1.771,-2.053 -3.413,-4.23 -4.962,-6.648 4.314,-0.839 8.502,-1.922 12.546,-3.251 l 5.436,4.452 c 15.87,12.998 33.993,22.63 53.272,28.557 19.251,5.918 39.649,8.127 60.098,6.289 l 5.477,-0.493 -2.552,-11.489 c -2.203,-9.911 -4.194,-20.035 -5.973,-30.362 -1.74,-10.109 -3.246,-20.317 -4.513,-30.616 -2.038,-16.56 -7.097,-32.452 -14.789,-46.944 -7.199,-13.562 -16.724,-25.913 -28.256,-36.449 1.657,-5.758 2.79,-11.681 3.375,-17.696 0.484,-4.978 1.42,-9.877 2.791,-14.633 1.37,-4.758 3.183,-9.402 5.42,-13.87 0.734,-1.467 1.587,-2.977 2.553,-4.523 0.923,-1.477 1.906,-2.898 2.946,-4.258 9.227,-12.066 16.582,-25.359 21.895,-39.427 5.312,-14.068 8.58,-28.908 9.632,-44.066 l 0.681,-9.806 -18.311,12.263 c 1.132,-8.87 0.712,-17.789 -1.175,-26.373 -1.972,-8.964 -5.55,-17.592 -10.638,-25.446 l -3.259,-5.03 -11.6,11.739 c -1.501,-8.38 -5.034,-16.139 -10.142,-22.685 -5.663,-7.258 -13.274,-13.007 -22.202,-16.439 -6.551,-2.518 -13.312,-4.341 -20.175,-5.45 -3.578,-0.578 -7.185,-0.963 -10.807,-1.154 1.616,-9.346 0.926,-18.799 -1.834,-27.601 -2.877,-9.176 -8.005,-17.65 -15.117,-24.568 l -4.261,-4.145 -8.813,13.881 c -0.76,-8.274 -2.085,-16.143 -4.569,-23.476 -4.017,-11.856 -10.958,-22.156 -23.159,-30.238 -3.165,-11.496 -8.128,-22.538 -14.811,-32.692 -8.614,-13.091 -19.698,-24.134 -32.467,-32.609 -12.771,-8.477 -27.25,-14.402 -42.655,-17.256 l -5.424,-1.005 -0.604,12.688 -0.019,0.226 v 1.024 c 0,7.941 -0.804,15.793 -2.387,23.434 -1.593,7.691 -3.967,15.211 -7.095,22.438 -1.289,2.979 -2.486,5.989 -3.589,9.025 -9.018,4.335 -17.015,10.354 -23.617,17.645 -6.115,6.754 -11.029,14.602 -14.442,23.215 l -5.203,-9.206 -4.376,6.374 c -8.481,12.355 -14.356,26.141 -17.446,40.529 -3.083,14.357 -3.38,29.332 -0.715,44.098 l 0.054,0.301 c -7.631,3.819 -13.64,8.56 -18.71,14.212 -4.591,5.117 -8.346,10.916 -11.812,17.418 l -9.896,-27.134 -5.313,7.653 c -15.706,22.631 -21.948,49.304 -19.248,75.036 2.702,25.75 14.348,50.559 34.413,69.44 3.87,3.641 7.442,7.55 10.696,11.691 -30.925,19.475 -55.523,46.424 -72.085,77.627 -17.369,32.725 -25.91,70.147 -23.651,108.55 l 0.884,15.022 3.294,0.947 c 32.392,9.305 65.998,8.156 96.6,-2.045 30.614,-10.204 58.198,-29.456 78.537,-56.347 l 7.486,-9.898 c 1.062,0.58 2.137,1.135 3.225,1.663 7.67,3.728 15.975,6.163 24.579,7.142 z"
       style="fill:#000000;fill-opacity:1;fill-rule:evenodd;stroke:none"
       transform="matrix(1.3333333,0,0,-1.3333333,376.02,107.65227)"
       clip-path="url(#clipPath2)" />
    <path
       id="path3"
       d="M 0,0 C 2.841,-22.777 12.816,-38.295 29.009,-53.753 4.369,-44.035 -2.142,-25.768 0,0 m 234.548,28.496 c 8.092,-18.11 3.435,-36.952 -8.106,-46.927 6.729,15.817 8.044,29.54 8.106,46.927 m -14.506,38.267 c -7.577,9.805 -20.204,14.248 -32.252,11.348 l 1.963,1.365 c 5.894,4.099 13.516,4.775 20.04,1.776 6.523,-2.998 10.973,-9.224 11.699,-16.366 z M 39.203,60.534 C 49.46,78.797 71.096,81.984 82.248,64.586 67.499,73.43 53.617,71.845 39.203,60.534 m 25.168,-2.273 c 1.105,0 2.25,-0.062 3.428,-0.184 10.19,-1.053 18.862,-6.74 24.963,-15.456 5.943,-8.49 9.428,-19.863 9.428,-32.558 0,-2.368 -0.129,-4.838 -0.394,-7.401 -0.891,-8.617 -3.251,-16.757 -6.7,-23.981 -3.605,-7.55 -8.413,-14.138 -13.995,-19.266 -4.027,-3.701 -8.468,-6.649 -13.164,-8.66 -4.596,-1.968 -9.42,-3.036 -14.328,-3.036 -5.293,0 -10.25,1.24 -14.733,3.51 -4.611,2.334 -8.689,5.749 -12.083,10.014 -4.157,5.223 -7.297,11.729 -9.135,19.087 -1.747,6.996 -2.321,14.785 -1.473,22.988 1.555,15.043 7.622,28.684 16.173,38.578 8.74,10.11 20.102,16.365 32.013,16.365 m 42.638,-184.147 c -15.702,-0.566 -31.504,1.899 -46.506,7.426 l -8.518,3.139 -1.899,59.074 5.949,-6.929 c 10.896,-12.692 24.018,-23.047 38.569,-30.647 14.554,-7.601 30.546,-12.456 47.184,-14.148 l 21.956,-2.233 -10.881,-4.925 c -14.567,-6.595 -30.151,-10.191 -45.854,-10.757 m -49.366,34.587 -0.561,17.462 c 10.148,-10.389 21.825,-19.033 34.549,-25.679 14.335,-7.488 29.993,-12.436 46.288,-14.485 -10.131,-3.257 -20.611,-5.082 -31.137,-5.461 -14.857,-0.535 -29.827,1.804 -44.062,7.049 l -4.451,1.64 -0.437,13.602 c 7.189,-4.854 15.384,-8.039 23.983,-9.31 l 4.618,-0.683 c -10.761,2.842 -20.649,8.294 -28.79,15.865 M 191.367,59.333 c -0.419,0 -0.834,-0.028 -1.246,-0.077 2.177,1.48 4.471,2.281 6.822,2.281 h 0.025 v 0.013 c 5.938,-0.011 11.499,-5.142 15.695,-13.434 4.529,-8.949 7.327,-21.39 7.327,-35.208 h 0.012 v -0.192 c -0.015,-8.275 -1.041,-16.08 -2.846,-22.96 -1.792,-6.834 -4.346,-12.709 -7.425,-17.166 4.387,9.054 6.841,22.437 6.21,37.368 -1.152,27.269 -12.154,49.375 -24.574,49.375 m -3.824,-27.676 c 4.053,0 7.338,-7.105 7.338,-15.87 0,-8.764 -3.285,-15.869 -7.338,-15.869 -4.052,0 -7.337,7.105 -7.337,15.869 0,8.765 3.285,15.87 7.337,15.87 M 69.287,49.915 c -17.246,0 -32.45,-21.507 -33.957,-48.036 -1.345,-23.657 8.655,-43.318 23.065,-47.3 -1.581,-0.27 -3.179,-0.41 -4.786,-0.41 -4.272,0 -8.254,0.99 -11.836,2.804 -3.76,1.903 -7.116,4.726 -9.941,8.276 -3.586,4.506 -6.311,10.179 -7.925,16.643 -1.575,6.305 -2.091,13.342 -1.323,20.77 1.416,13.7 6.907,26.083 14.637,35.027 7.542,8.725 17.188,14.122 27.15,14.122 0.993,0 1.918,-0.045 2.773,-0.133 4.037,-0.417 7.795,-1.756 11.17,-3.859 -2.815,1.361 -5.844,2.096 -9.027,2.096 M 55.674,27.05 c 5.654,0 9.466,-7.907 8.513,-17.661 -0.953,-9.755 -6.309,-17.662 -11.964,-17.662 -5.654,0 -9.466,7.907 -8.513,17.662 0.953,9.754 6.309,17.661 11.964,17.661 m 57.762,-62.429 c -0.194,20.09 -1.689,40.605 -5.04,58.589 -2.998,16.093 -7.472,30.09 -13.816,39.791 -0.987,1.509 -2.026,2.875 -3.109,4.101 C 84.337,75.18 74.301,78.877 63.826,79.12 53.146,79.368 42.028,76.055 32.979,70.137 30.911,68.785 28.982,67.325 27.223,65.772 15.045,55.016 6.795,43.285 -1.156,31.978 c -14.493,-20.61 -28.03,-39.86 -62.197,-50.66 -4.094,-1.294 -7.99,-3.023 -11.619,-5.147 -3.647,-2.134 -7.065,-4.682 -10.183,-7.603 l -1.528,-1.431 c -1.284,-4.935 -2.194,-9.954 -2.725,-15.013 -2.149,-20.486 1.901,-41.621 12.465,-60.397 l 11.216,30.753 4.901,-10.657 c 4.607,-10.018 9.179,-18.477 15.269,-25.265 5.06,-5.641 11.277,-10.23 19.623,-13.76 l 6.067,19.065 5.609,-7.479 c 4.925,-6.566 9.363,-11.284 14.498,-14.01 3.632,-1.927 7.782,-2.906 12.937,-2.903 l -3.008,8.865 c -3.847,-0.054 -7.696,-0.225 -11.541,-0.514 17.105,9.837 43.459,8.463 56.462,5.617 6.724,-1.473 13.271,-3.611 19.542,-6.371 6.258,-2.755 12.249,-6.136 17.88,-10.103 9.946,-7.007 21.463,-10.82 33.129,-11.37 11.66,-0.549 23.483,2.162 34.046,8.203 5.333,3.049 10.419,6.165 15.252,9.341 4.961,3.261 9.841,6.691 14.631,10.284 9.999,7.498 22.856,5.259 29.512,-1.525 h -5.12 c -3.397,0 -6.712,-0.538 -9.82,-1.575 -3.131,-1.043 -6.102,-2.594 -8.79,-4.609 -4.609,-3.457 -9.336,-6.791 -14.171,-9.996 2.613,-0.064 5.191,-0.154 7.734,-0.273 6.343,-0.296 12.677,0.067 18.902,1.072 6.233,1.007 12.35,2.653 18.247,4.92 7.244,2.785 13.431,7.464 18.046,13.379 4.597,5.891 7.623,13.031 8.566,20.764 l 2.063,16.905 16.943,-17.145 c 2.833,5.38 4.917,11.102 6.215,17.005 1.731,7.87 2.061,16.037 0.907,24.117 l -2.894,20.264 19.553,-13.094 c -0.876,6.272 -2.159,12.464 -3.833,18.539 -2.442,3.174 -5.053,6.221 -7.821,9.127 -2.764,2.903 -5.686,5.663 -8.753,8.268 -8.648,7.344 -15.601,16.289 -20.553,26.223 -4.949,9.93 -7.908,20.868 -8.567,32.198 -0.315,5.416 -0.991,10.816 -2.021,16.163 -1.032,5.353 -2.41,10.618 -4.129,15.757 -2.691,8.051 -8.027,14.611 -14.801,18.914 -6.771,4.301 -14.98,6.342 -23.421,5.356 -8.688,-1.014 -16.754,-4.355 -23.468,-9.466 -6.717,-5.114 -12.087,-12.003 -15.379,-20.112 -6.633,-16.339 -9.117,-33.767 -7.582,-50.823 1.493,-16.593 6.8,-32.859 15.797,-47.451 1.604,-0.08 3.146,-0.213 4.615,-0.401 -2.232,4.298 -4.09,9.301 -5.472,14.811 -1.81,7.211 -2.82,15.355 -2.805,23.981 0.028,14.902 3.133,28.433 8.13,38.263 5.342,10.508 12.946,17.008 21.543,17.008 h 0.025 v -0.013 c 8.58,-0.015 16.142,-6.493 21.439,-16.961 4.965,-9.811 8.032,-23.285 8.032,-38.105 h -0.012 l -0.001,-0.192 c -0.015,-8.85 -1.115,-17.204 -3.047,-24.572 -2.041,-7.778 -5.02,-14.509 -8.651,-19.631 -2.443,-3.444 -5.203,-6.194 -8.2,-8.089 -1.959,-1.238 -4.01,-2.112 -6.132,-2.581 3.109,-4.361 5.441,-9.277 6.836,-14.542 1.455,-5.494 1.606,-11.161 0.536,-16.577 -1.069,-5.412 -3.37,-10.603 -6.817,-15.147 -3.44,-4.536 -7.817,-8.148 -12.746,-10.639 -4.929,-2.491 -10.434,-3.874 -16.129,-3.955 -5.975,-0.084 -11.982,-0.155 -18.021,-0.212 -5.988,-0.057 -11.996,-0.1 -18.022,-0.129 -5.775,-0.028 -11.405,1.137 -16.559,3.352 -5.166,2.221 -9.887,5.504 -13.831,9.705 -3.952,4.209 -6.934,9.13 -8.824,14.423 -1.891,5.297 -2.702,10.989 -2.311,16.736 0.332,4.886 2.008,9.494 4.723,13.388 2.707,3.882 6.451,7.041 10.928,9.045 0.97,0.434 2.068,0.879 3.277,1.33"
       style="fill:#ffffff;fill-opacity:1;fill-rule:evenodd;stroke:none"
       transform="matrix(1.3333333,0,0,-1.3333333,280.14573,344.57067)"
       clip-path="url(#clipPath4)" />
    <path
       id="path5"
       d="M 0,0 C 15.295,6.48 32.143,9.277 50.279,7.687 48.8,6.217 47.393,4.72 46.043,3.155 42.444,-1.017 39.321,-5.592 36.448,-11.279 l -3.067,-6.073 6.752,-0.88 c 15.364,-2.005 29.13,-7.178 40.336,-15.617 8.055,-6.067 14.811,-13.846 19.909,-23.374 -6.139,1.681 -12.198,2.932 -18.376,3.665 -9.653,1.147 -19.585,1.025 -30.55,-0.694 l -5.327,-0.836 1.416,-5.192 c 1.813,-6.649 2.771,-12.746 2.404,-18.668 -0.169,-2.741 -0.632,-5.47 -1.437,-8.227 -3.853,7.301 -8.555,14.632 -14.483,20.981 -8.847,9.475 -20.314,16.715 -35.552,18.464 -8.721,1.001 -17.341,2.721 -25.775,5.134 -6.489,1.857 -12.851,4.119 -19.046,6.775 C -33.127,-19.727 -17.543,-7.433 0,0 m 71.215,-17.12 1.263,1.034 c 14.922,12.221 31.926,21.266 49.985,26.819 16.357,5.029 33.589,7.207 50.932,6.301 l -0.154,-0.695 c -2.307,-10.383 -4.337,-20.659 -6.086,-30.815 -1.786,-10.374 -3.316,-20.734 -4.589,-31.07 -1.891,-15.371 -6.588,-30.125 -13.731,-43.58 -6.056,-11.412 -13.857,-21.88 -23.18,-30.993 -0.539,1.321 -1.107,2.63 -1.703,3.927 9.523,12.153 17.122,25.614 22.61,39.903 5.85,15.23 9.288,31.373 10.092,47.848 l 0.871,17.845 -8.408,-6.88 c -10.518,-8.607 -20.556,-17.849 -30.064,-27.677 -3.073,-3.176 -6.086,-6.409 -9.037,-9.697 -5.885,11.8 -13.96,21.354 -23.728,28.71 -4.662,3.511 -9.705,6.516 -15.073,9.02 m 28.362,-49.909 c -3.814,1.093 -7.58,2.011 -11.35,2.73 l 1.99,-2.309 c 1.68,-1.95 3.332,-3.922 4.955,-5.915 1.45,1.846 2.918,3.678 4.405,5.494 m -208.422,11.059 c 2.925,2.96 6.073,5.659 9.404,8.077 l -7.004,9.261 c -19.149,25.319 -45.087,43.433 -73.851,53.021 -27.742,9.248 -58.139,10.574 -87.64,2.799 l -0.479,-8.144 c -2.152,-36.581 5.993,-72.245 22.556,-103.449 15.879,-29.916 39.487,-55.718 69.167,-74.288 0.629,0.972 1.243,1.954 1.839,2.946 1.397,2.325 2.706,4.701 3.921,7.124 -17.568,12.628 -32.408,28.362 -43.903,46.245 -12.229,19.025 -20.674,40.481 -24.594,63.216 l -2.935,17.023 7.048,-1.609 c 16.984,-3.877 33.399,-9.658 48.941,-17.195 15.559,-7.546 30.263,-16.854 43.806,-27.775 l 8.135,-6.56 c 1.835,2.384 3.704,4.741 5.606,7.07 6.312,7.731 12.98,15.153 19.983,22.238"
       style="fill:#999999;fill-opacity:1;fill-rule:evenodd;stroke:none"
       transform="matrix(1.3333333,0,0,-1.3333333,451.36933,63.498667)"
       clip-path="url(#clipPath6)" />
    <path
       id="path7"
       d="m 0,0 -1.249,-0.718 c -12.172,-6.962 -25.82,-10.085 -39.299,-9.45 -13.474,0.636 -26.766,5.031 -38.23,13.108 -5.093,3.588 -10.528,6.654 -16.217,9.158 -5.675,2.498 -11.601,4.433 -17.691,5.766 -8.952,1.96 -17.996,3.262 -27.058,3.9 -1.858,0.13 -3.717,0.233 -5.579,0.308 l 5.842,-17.217 -5.917,-0.717 c -10.197,-1.235 -17.887,-0.011 -24.631,3.569 -4.35,2.308 -8.169,5.551 -11.928,9.715 l -3.576,-11.238 -5.113,1.771 c -2.089,-12.896 -1.711,-25.968 0.992,-38.556 2.282,-10.63 6.231,-20.905 11.76,-30.427 l 8.023,14.195 5.478,-16.435 c 2.966,-8.898 7.733,-16.974 13.901,-23.786 3.617,-3.994 7.718,-7.553 12.223,-10.588 -1.966,7.371 -3.403,14.854 -4.302,22.392 -1.599,13.416 -3.232,26.423 10.746,44.894 -2.51,-14.527 -2.875,-29.267 -1.147,-43.76 1.731,-14.52 5.545,-28.758 11.387,-42.253 3.4,-7.856 5.976,-16.009 7.699,-24.328 1.734,-8.368 2.614,-16.866 2.614,-25.361 v -1.024 h -0.008 l 0.06,-1.271 c 12.069,2.9 23.444,7.894 33.647,14.667 11.719,7.778 21.875,17.888 29.747,29.85 7.882,11.978 13.154,25.304 15.659,39.129 2.506,13.828 2.245,28.164 -0.937,42.16 l -3.413,15.017 c 19.329,-16.28 16.535,-39.907 14.623,-53.914 5.202,5.384 8.642,11.56 10.941,18.347 3.574,10.551 4.509,22.727 4.956,35.751 l 0.536,15.61 18.628,-29.34 c 3.861,4.811 6.749,10.267 8.565,16.059 2.407,7.677 2.933,15.944 1.355,24.086 l -0.116,0.603 -0.207,0.01 c -4.09,0.191 -8.098,0.31 -12.02,0.357 C 7.175,0.081 3.593,0.068 0,0"
       style="fill:#d1d1d1;fill-opacity:1;fill-rule:evenodd;stroke:none"
       transform="matrix(1.3333333,0,0,-1.3333333,501.12587,539.06813)"
       clip-path="url(#clipPath8)" />
    <path
       id="path9"
       d="m 0,0 -1.249,-0.718 c -12.172,-6.962 -25.82,-10.085 -39.299,-9.45 -13.474,0.636 -26.766,5.031 -38.23,13.108 -5.093,3.588 -10.528,6.654 -16.217,9.158 -5.675,2.498 -11.601,4.433 -17.691,5.766 -8.952,1.96 -17.996,3.262 -27.058,3.9 -1.858,0.13 -3.717,0.233 -5.579,0.308 l 5.842,-17.217 -5.917,-0.717 c -10.197,-1.235 -17.887,-0.011 -24.631,3.569 -4.35,2.308 -8.169,5.551 -11.928,9.715 l -3.576,-11.238 -5.113,1.771 c -1.667,-10.292 -1.763,-20.697 -0.359,-30.878 17.749,21.7 49.076,27.712 73.851,13.112 36.928,-21.762 64.637,-54.949 79.825,-93.479 2.29,6.036 4.016,12.258 5.162,18.583 2.506,13.828 2.245,28.164 -0.937,42.16 l -3.413,15.017 c 19.329,-16.28 16.535,-39.907 14.623,-53.914 5.202,5.384 8.642,11.56 10.941,18.347 3.574,10.551 4.509,22.727 4.956,35.751 l 0.536,15.61 18.628,-29.34 c 3.861,4.811 6.749,10.267 8.565,16.059 2.407,7.677 2.933,15.944 1.355,24.086 l -0.116,0.603 -0.207,0.01 c -4.09,0.191 -8.098,0.31 -12.02,0.357 C 7.175,0.081 3.593,0.068 0,0"
       style="fill:#b3b3b3;fill-opacity:1;fill-rule:evenodd;stroke:none"
       transform="matrix(1.3333333,0,0,-1.3333333,501.12587,539.06813)"
       clip-path="url(#clipPath10)" />
    <path
       id="path11"
       d="M 0,0 C 3.81,4.361 7.728,8.622 11.749,12.778 18.376,19.626 25.311,26.216 32.537,32.526 31.449,18.497 28.334,4.787 23.349,-8.192 18.731,-20.215 12.498,-31.633 4.774,-42.121 c -4.082,6.937 -8.468,13.694 -13.144,20.252 -1.484,2.08 -2.996,4.14 -4.539,6.18 2.664,3.44 5.391,6.827 8.179,10.158 l 7.831,-2.656 z m -260.832,-37.573 c -3.782,-5.651 -7.098,-11.595 -9.919,-17.771 -2.814,-6.163 -5.135,-12.564 -6.934,-19.14 -0.972,-3.552 -2.127,-7.043 -3.458,-10.459 -15.862,11.705 -29.3,26.123 -39.787,42.438 -11.532,17.942 -19.497,38.179 -23.195,59.625 l -0.455,2.641 c 13.729,-3.619 27.053,-8.562 39.791,-14.739 14.897,-7.225 28.979,-16.139 41.954,-26.603 l 8.409,-6.781 c -2.188,-3.03 -4.324,-6.101 -6.406,-9.211 m -64.742,-129.905 c 1.526,1.084 3.099,2.1 4.715,3.046 4.098,2.397 8.433,4.33 12.929,5.751 32.101,10.146 45.03,28.532 58.872,48.216 8.15,11.59 16.607,23.616 29.386,34.902 2.055,1.815 4.229,3.468 6.487,4.945 10.092,6.599 22.525,10.293 34.5,10.016 12.18,-0.283 23.906,-4.646 32.331,-14.184 1.339,-1.517 2.573,-3.128 3.688,-4.833 6.831,-10.445 11.599,-25.254 14.749,-42.159 3.302,-17.724 4.837,-37.831 5.116,-57.613 9.369,2.827 21.966,5.551 33.722,6.86 3.362,0.375 6.677,0.632 9.863,0.744 -8.286,14.538 -13.216,30.538 -14.685,46.862 -1.626,18.074 0.997,36.522 8.01,53.796 3.733,9.193 9.824,17.005 17.445,22.808 7.626,5.806 16.783,9.599 26.642,10.751 9.947,1.161 19.623,-1.243 27.604,-6.313 7.979,-5.069 14.267,-12.808 17.446,-22.316 1.823,-5.454 3.278,-10.996 4.355,-16.588 1.079,-5.598 1.789,-11.284 2.123,-17.02 0.605,-10.421 3.338,-20.503 7.911,-29.679 4.573,-9.173 10.981,-17.423 18.94,-24.182 2.441,-2.073 4.798,-4.243 7.067,-6.504 -4.865,12.044 -11.35,23.448 -19.328,33.881 -1.246,1.63 -2.406,3.304 -3.475,5.015 -1.027,1.643 -2.018,3.417 -2.968,5.316 -2.493,4.98 -4.521,10.181 -6.063,15.532 -1.542,5.353 -2.593,10.834 -3.131,16.373 -0.618,6.352 -1.922,12.611 -3.879,18.67 -1.948,6.035 -4.555,11.876 -7.784,17.418 -4.105,7.044 -8.526,13.886 -13.245,20.505 -4.729,6.631 -9.756,13.039 -15.065,19.2 l -8.908,10.338 c -5.123,0.251 -10.373,0.103 -15.873,-0.499 1.211,-5.658 1.771,-11.061 1.439,-16.434 -0.446,-7.21 -2.459,-14.258 -6.591,-21.621 l -4.69,-8.355 -3.926,8.752 c -4.23,9.428 -9.724,19.731 -17.416,27.969 -7.409,7.935 -16.962,13.993 -29.581,15.441 -9.27,1.063 -18.409,2.884 -27.325,5.436 -8.469,2.424 -16.766,5.517 -24.813,9.257 l -7.627,-0.868 c -7.498,-0.854 -14.743,-2.98 -21.443,-6.235 -6.693,-3.253 -12.836,-7.632 -18.137,-12.996 -6.811,-6.891 -13.278,-14.086 -19.378,-21.559 -6.118,-7.493 -11.877,-15.27 -17.255,-23.303 -3.5,-5.229 -6.563,-10.718 -9.163,-16.411 -2.606,-5.707 -4.751,-11.615 -6.406,-17.666 -2.806,-10.26 -6.994,-20.02 -12.407,-29.024 -5.432,-9.032 -12.09,-17.314 -19.821,-24.588 -11.259,-10.595 -19.615,-23.231 -24.957,-36.85"
       style="fill:#666666;fill-opacity:1;fill-rule:evenodd;stroke:none"
       transform="matrix(1.3333333,0,0,-1.3333333,603.66187,149.7084)"
       clip-path="url(#clipPath12)" />
    <path
       id="path13"
       d="m 0,0 -1.195,-0.626 c 0.234,-1.232 0.237,-2.431 0.041,-3.488 1.849,1.438 3.521,3.121 4.962,5.02 2.519,3.32 4.207,7.153 5.003,11.18 0.794,4.024 0.687,8.219 -0.385,12.268 -1.228,4.636 -3.368,8.914 -6.245,12.604 -2.885,3.703 -6.516,6.83 -10.714,9.155 -4.765,2.637 -15.04,2.671 -26.323,1.414 -15.717,-1.751 -32.77,-6.061 -40.527,-9.531 -2.853,-1.277 -5.238,-3.288 -6.96,-5.758 -1.713,-2.457 -2.773,-5.386 -2.985,-8.512 -0.299,-4.397 0.326,-8.765 1.783,-12.844 1.457,-4.083 3.737,-7.856 6.745,-11.059 3.014,-3.211 6.639,-5.727 10.619,-7.438 3.301,-1.419 6.826,-2.282 10.431,-2.526 -1.393,1.169 -2.3,2.881 -2.418,4.788 l -2.048,0.341 c -7.692,1.282 -13.408,7.82 -13.651,15.614 l 2.047,-2.559 c 4.348,-5.434 11.172,-8.266 18.089,-7.509 3.735,0.41 7.111,-2.245 7.594,-5.972 0.228,-1.761 -0.401,-3.523 -1.688,-4.743 4.102,0.026 8.213,0.059 12.333,0.098 5.962,0.056 11.957,0.127 17.983,0.212 3.994,0.057 7.882,0.998 11.415,2.697 -0.134,0.097 -0.265,0.204 -0.395,0.322 -1.095,1 -1.9,2.648 -2.157,4.42 -0.538,3.7 0.961,6.771 3.373,6.907 4.465,0.253 8.066,3.99 9.544,9.908 L 4.967,17.17 C 6.568,9.54 4.488,2.351 0,0"
       style="fill:#333333;fill-opacity:1;fill-rule:evenodd;stroke:none"
       transform="matrix(1.3333333,0,0,-1.3333333,532.7748,455.9172)"
       clip-path="url(#clipPath14)" />
  </g>
  <metadata
     id="metadata14">
    <rdf:RDF>
      <cc:Work
         rdf:about="">
        <dc:title>cute-wolf-head</dc:title>
        <dc:creator>
          <cc:Agent>
            <dc:title>libreclipart.org</dc:title>
          </cc:Agent>
        </dc:creator>
        <dc:rights>
          <cc:Agent>
            <dc:title>CC 0</dc:title>
          </cc:Agent>
        </dc:rights>
        <dc:publisher>
          <cc:Agent>
            <dc:title>https://www.libreclipart.org</dc:title>
          </cc:Agent>
        </dc:publisher>
        <dc:source>https://www.libreclipart.org</dc:source>
        <cc:license
           rdf:resource="http://creativecommons.org/publicdomain/zero/1.0/" />
      </cc:Work>
      <cc:License
         rdf:about="http://creativecommons.org/publicdomain/zero/1.0/">
        <cc:permits
           rdf:resource="http://creativecommons.org/ns#Reproduction" />
        <cc:permits
           rdf:resource="http://creativecommons.org/ns#Distribution" />
        <cc:permits
           rdf:resource="http://creativecommons.org/ns#DerivativeWorks" />
      </cc:License>
    </rdf:RDF>
  </metadata>
</svg>
